<?xml version="1.0" encoding="utf-8"?>
<!-- Generator: Adobe Illustrator 23.0.6, SVG Export Plug-In . SVG Version: 6.00 Build 0)  -->
<svg version="1.1" xmlns="http://www.w3.org/2000/svg" xmlns:xlink="http://www.w3.org/1999/xlink" x="0px" y="0px"
	 viewBox="0 0 152 35" style="enable-background:new 0 0 152 35;" xml:space="preserve">
<style type="text/css">
	.st0{enable-background:new    ;}
	.st1{fill-rule:evenodd;clip-rule:evenodd;fill:#393D72;}
	.st2{fill:#FF4880;}
</style>
<g id="petzen_1_" class="st0">
	<g id="petzen">
		<g>
			<path class="st1" d="M48.02,5.32c-3.6,0-5.72,1.76-6,2.24c0-0.24,0.04-1.92,0.04-2.16c0,0-5.96-0.32-6-0.2
				c-0.36,0.88-0.6,28.64-0.48,28.68c0.76,0.4,6.24,0.16,6.6-0.12c0.36-0.24,0.2-8.72,0.2-10.04c0.32,0.52,2.52,1.76,5.16,1.76
				c4.92-0.04,9.24-3.6,9.24-10C56.78,8.84,52.74,5.32,48.02,5.32z M46.06,19.76c-2,0-3.84-1.6-3.84-4.24c0-2.4,1.28-4.12,4-4.12
				c2.16,0,3.8,1.44,3.8,4.16C50.02,18.04,48.58,19.76,46.06,19.76z M68.22,5.32c-6.28,0-9.64,5.04-9.64,10.44
				c0,5.12,2.92,9.96,10.16,9.96c3.24,0,6-1.28,7.08-2.28c-0.04-0.6-1.68-3.92-2.08-4.32c-1.04,0.64-2.52,1.4-4.68,1.4
				c-2.76,0-4.28-1.32-4.28-3.44c2.4,0.08,9.64,0.08,11.64-0.2c0.24-0.8,0.36-1.84,0.36-3.08C76.78,9.32,73.54,5.32,68.22,5.32z
				 M64.74,13.4c0-2.04,1.36-3.6,3.44-3.6c1.92,0,2.92,1.52,2.84,3.48L64.74,13.4z M91.86,19.2c-0.52-0.08-1.52,0.88-2.92,0.88
				c-1.28-0.04-1.96-0.88-1.96-2.16c0.04-2.32,0.16-6.88,0.16-7.08c0-0.32,4.84,0.12,5.12-0.36c0,0,0.32-4.04-0.08-4.6
				c-0.4-0.52-4.8-0.32-4.88-0.28c-0.08,0,0.28-5.16,0.08-5.36c-0.2-0.2-5.72,0.16-6.08,0.52c-0.36,0.36-0.12,4.52-0.24,4.68
				c-0.12,0.12-2.8,0-2.96,0.04c-0.24,0.04-0.2,4.68,0,4.88s2.76,0.16,2.76,0.2c0,0.04-0.24,6.92-0.28,8.8c0,3.92,2.24,6.4,6.84,6.4
				c4.16,0.04,5.84-1.96,5.84-1.96C93.22,22.96,92.34,19.32,91.86,19.2z M94.66,5.6c-0.36,0.12-0.56,4.68-0.2,5
				c0.56,0.52,7.88,0.04,7.88,0.04s-7.88,10.12-7.88,10.24c-0.24,1.04,0.2,4.4,0.32,4.48c0.12,0.04,14.48,0.2,14.68,0.04
				c0.2-0.16,0.24-4.96,0.12-5.08c-0.4-0.36-7.36-0.04-7.76,0.04c0.12-0.24,7.92-10.4,8-10.56c0.12-0.36-0.24-4.4-0.32-4.44
				C109.38,5.32,95.06,5.52,94.66,5.6z M121.1,5.32c-6.28,0-9.64,5.04-9.64,10.44c0,5.12,2.92,9.96,10.16,9.96
				c3.24,0,6-1.28,7.08-2.28c-0.04-0.6-1.68-3.92-2.08-4.32c-1.04,0.64-2.52,1.4-4.68,1.4c-2.76,0-4.28-1.32-4.28-3.44
				c2.4,0.08,9.64,0.08,11.64-0.2c0.24-0.8,0.36-1.84,0.36-3.08C129.66,9.32,126.42,5.32,121.1,5.32z M117.62,13.4
				c0-2.04,1.36-3.6,3.44-3.6c1.92,0,2.92,1.52,2.84,3.48L117.62,13.4z M144.5,5.2c-3.24,0-5.2,1.48-6.08,2.8
				c0.04-0.24,0.08-1.56,0.12-2.4c-0.36-0.36-5.96-0.12-6.32,0.4c-0.12,8.48,0.04,18.92,0.12,19.08c0.12,0.24,5.96,0.32,6.08,0.16
				c0.12-0.16,0.16-9.76,0.16-11.12c0-1.56,1.32-3.28,3.52-3.28c2.08,0,3.04,1.52,3.04,3.68c0,1.44-0.2,10.88-0.04,10.96
				c0.12,0.08,6.12,0.16,6.16-0.24c0.16-1.96,0.32-8.72,0.32-11.4C151.58,8.68,148.86,5.2,144.5,5.2z"/>
		</g>
	</g>
</g>
<g id="Shape_47_1_" class="st0">
	<g id="Shape_47">
		<g>
			<path class="st2" d="M26.92,0.99H3.09C1.38,0.99,0,2.35,0,4.03v23.39c0,1.67,1.38,3.03,3.09,3.03h20.99l5.91,4.56v-7.4
				c0-0.06,0.02-0.12,0.02-0.19V4.03C30.01,2.35,28.62,0.99,26.92,0.99z M15.81,8.07c0.71-2.22,2.56-3.62,4.11-3.14
				c1.56,0.48,2.24,2.67,1.53,4.89c-0.71,2.22-2.56,3.62-4.11,3.14C15.78,12.48,15.09,10.29,15.81,8.07z M10.09,4.93
				c1.56-0.48,3.4,0.92,4.11,3.14c0.71,2.22,0.03,4.4-1.53,4.89c-1.56,0.48-3.4-0.92-4.11-3.14C7.85,7.61,8.53,5.42,10.09,4.93z
				 M3.17,15.04c-1.45-1.84-1.59-4.12-0.3-5.1c1.29-0.98,3.51-0.29,4.97,1.54c1.45,1.83,1.59,4.12,0.3,5.1
				C6.84,17.56,4.62,16.87,3.17,15.04z M18.66,24.51c-1.43-0.02-2.65-0.89-3.27-2.13c1.07-0.67,3.65-1.75,3.67-3.5
				c0.02-1.17-0.87-2.14-1.98-2.15c-0.95-0.01-1.75,0.66-1.98,1.59c-0.2-0.93-0.99-1.63-1.93-1.64c-1.11-0.02-2.03,0.92-2.05,2.1
				c-0.03,1.75,2.51,2.89,3.56,3.6c-0.66,1.23-1.9,2.06-3.34,2.04c-2.08-0.03-3.74-1.83-3.71-4.02c0.06-3.74,6.36-5.84,7.53-7.04
				c1.14,1.23,7.38,3.5,7.32,7.25C22.45,22.79,20.74,24.54,18.66,24.51z M26.85,15.04c-1.45,1.83-3.68,2.52-4.97,1.54
				c-1.29-0.98-1.16-3.27,0.3-5.1c1.45-1.84,3.68-2.53,4.97-1.54C28.43,10.92,28.3,13.2,26.85,15.04z"/>
		</g>
	</g>
</g>
</svg>
